<?xml version="1.0" encoding="UTF-8" standalone="no"?>
<!-- Created with Inkscape (http://www.inkscape.org/) -->

<svg
   width="230mm"
   height="230mm"
   viewBox="0 0 230 230"
   version="1.1"
   id="svg1"
   inkscape:version="1.3.2 (091e20e, 2023-11-25, custom)"
   sodipodi:docname="BME STORE SQUARE.svg"
   inkscape:export-filename="BME Store square.png"
   inkscape:export-xdpi="96"
   inkscape:export-ydpi="96"
   xmlns:inkscape="http://www.inkscape.org/namespaces/inkscape"
   xmlns:sodipodi="http://sodipodi.sourceforge.net/DTD/sodipodi-0.dtd"
   xmlns="http://www.w3.org/2000/svg"
   xmlns:svg="http://www.w3.org/2000/svg">
  <sodipodi:namedview
     id="namedview1"
     pagecolor="#ffffff"
     bordercolor="#000000"
     borderopacity="0.25"
     inkscape:showpageshadow="2"
     inkscape:pageopacity="0.0"
     inkscape:pagecheckerboard="0"
     inkscape:deskcolor="#d1d1d1"
     inkscape:document-units="mm"
     inkscape:zoom="0.35355339"
     inkscape:cx="801.85909"
     inkscape:cy="634.98189"
     inkscape:window-width="1920"
     inkscape:window-height="991"
     inkscape:window-x="-9"
     inkscape:window-y="-9"
     inkscape:window-maximized="1"
     inkscape:current-layer="layer1" />
  <defs
     id="defs1" />
  <g
     inkscape:label="Layer 1"
     inkscape:groupmode="layer"
     id="layer1">
    <text
       xml:space="preserve"
       style="font-style:normal;font-variant:normal;font-weight:bold;font-stretch:normal;font-size:13.2044px;font-family:Helvetica;-inkscape-font-specification:'Helvetica, Bold';font-variant-ligatures:normal;font-variant-caps:normal;font-variant-numeric:normal;font-variant-east-asian:normal;fill:#000000;stroke:#000000;stroke-width:0;stroke-dashoffset:413.45"
       x="58.335953"
       y="60.405952"
       id="text4"><tspan
         sodipodi:role="line"
         id="tspan4"
         style="font-style:normal;font-variant:normal;font-weight:bold;font-stretch:normal;font-size:13.2044px;font-family:Helvetica;-inkscape-font-specification:'Helvetica, Bold';font-variant-ligatures:normal;font-variant-caps:normal;font-variant-numeric:normal;font-variant-east-asian:normal;stroke-width:0"
         x="58.335953"
         y="60.405952" /></text>
    <rect
       style="fill:#ff0030;fill-opacity:1;stroke:#000000;stroke-width:0;stroke-dashoffset:413.45"
       id="rect5"
       width="230"
       height="230"
       x="0"
       y="0" />
    <g
       id="g3"
       transform="matrix(0.98989988,0,0,0.98989988,2.1715392,21.903738)"
       style="fill:#ffffff;fill-opacity:1">
      <g
         id="g1"
         transform="matrix(1.3366673,0,0,1.3366673,-5.3632919,42.814977)"
         style="fill:#ffffff;fill-opacity:1">
        <path
           style="font-size:10.4285px;font-family:'Franklin Gothic Heavy';-inkscape-font-specification:'Franklin Gothic Heavy, Normal';font-feature-settings:HI;fill:#ffffff;fill-opacity:1;stroke:#000000;stroke-width:0;stroke-dashoffset:413.45"
           d="m 164.86023,61.316265 v 6.500314 h -20.47796 v -27.21757 h 20.47796 v 6.28098 h -12.28279 v 3.948041 h 9.92991 v 6.041702 h -9.92991 v 4.446533 z"
           id="path22" />
        <path
           style="font-size:10.4285px;font-family:'Franklin Gothic Heavy';-inkscape-font-specification:'Franklin Gothic Heavy, Normal';font-feature-settings:HI;fill:#ffffff;fill-opacity:1;stroke:#000000;stroke-width:0;stroke-dashoffset:413.45"
           d="m 133.56743,67.816579 h -9.27191 l -3.96798,-10.408478 h -2.63204 v 10.408478 h -8.35471 v -27.21757 h 14.21695 c 3.13718,0 5.56982,0.737763 7.2979,2.213294 1.7414,1.462241 2.61211,3.396382 2.61211,5.802426 0,1.568585 -0.31904,2.957713 -0.95711,4.167384 -0.63807,1.196374 -1.9275,2.253174 -3.86829,3.170394 z M 117.6955,51.585733 h 3.56919 c 1.05016,0 1.89426,-0.219347 2.53233,-0.658007 0.63807,-0.438672 0.9571,-1.083386 0.9571,-1.934141 0,-1.741395 -1.07008,-2.612094 -3.21027,-2.612094 h -3.84835 z"
           id="path21" />
        <path
           style="font-size:10.4285px;font-family:'Franklin Gothic Heavy';-inkscape-font-specification:'Franklin Gothic Heavy, Normal';font-feature-settings:HI;fill:#ffffff;fill-opacity:1;stroke:#000000;stroke-width:0;stroke-dashoffset:413.45"
           d="m 86.023867,68.235312 c -3.8284,0 -6.95228,-1.269488 -9.37162,-3.808466 -2.40605,-2.538977 -3.60907,-5.935359 -3.60907,-10.189141 0,-4.067684 1.14985,-7.424186 3.44955,-10.069506 2.313,-2.658616 5.51663,-3.987923 9.6109,-3.987923 3.78851,0 6.8725,1.249548 9.25195,3.748644 2.39276,2.499099 3.58912,5.835661 3.58912,10.009687 0,4.320249 -1.20302,7.783096 -3.60907,10.388539 -2.40602,2.605445 -5.50993,3.908166 -9.31176,3.908166 z m -0.0399,-6.181279 c 1.40907,0 2.41934,-0.611484 3.03081,-1.834446 0.62478,-1.236257 0.93718,-3.489433 0.93718,-6.759532 0,-4.732334 -1.26949,-7.098502 -3.80847,-7.098502 -2.73837,0 -4.10756,2.698495 -4.10756,8.095486 0,5.064662 1.31601,7.596994 3.94804,7.596994 z"
           id="path20" />
        <path
           style="font-size:10.4285px;font-family:'Franklin Gothic Heavy';-inkscape-font-specification:'Franklin Gothic Heavy, Normal';font-feature-settings:HI;fill:#ffffff;fill-opacity:1;stroke:#000000;stroke-width:0;stroke-dashoffset:413.45"
           d="m 59.376987,47.119261 v 20.697318 h -7.91603 V 47.119261 h -5.64291 v -6.520252 h 19.20185 v 6.520252 z"
           id="path19" />
        <path
           style="font-size:10.4285px;font-family:'Franklin Gothic Heavy';-inkscape-font-specification:'Franklin Gothic Heavy, Normal';font-feature-settings:HI;fill:#ffffff;fill-opacity:1;stroke:#000000;stroke-width:0;stroke-dashoffset:413.45"
           d="m 13.707707,59.94043 7.75651,-1.39577 c 0.65136,2.193357 2.32629,3.290034 5.02479,3.290034 2.1003,0 3.15045,-0.558309 3.15045,-1.674926 0,-0.584894 -0.24593,-1.03686 -0.73776,-1.355895 -0.47855,-0.332325 -1.3426,-0.624774 -2.59215,-0.877343 -4.77222,-0.917225 -7.83627,-2.113598 -9.19216,-3.589127 -1.3559,-1.475535 -2.03384,-3.210282 -2.03384,-5.204242 0,-2.565564 0.97039,-4.699102 2.91118,-6.400616 1.95408,-1.701514 4.75892,-2.552269 8.41452,-2.552269 5.54321,0 9.20546,2.226587 10.98673,6.679767 l -6.91905,2.093665 c -0.71783,-1.821154 -2.17342,-2.73173 -4.36678,-2.73173 -1.82115,0 -2.73172,0.564957 -2.73172,1.694867 0,0.505139 0.20605,0.897283 0.61813,1.176436 0.41208,0.279156 1.20967,0.545018 2.39275,0.797587 3.25681,0.69124 5.5698,1.302721 6.93898,1.834441 1.36919,0.531724 2.5124,1.4423 3.42962,2.73173 0.91722,1.276134 1.37583,2.784898 1.37583,4.526289 0,2.751668 -1.11662,4.984906 -3.34985,6.699713 -2.23324,1.701514 -5.16437,2.552271 -8.79337,2.552271 -6.63325,0 -10.72752,-2.764958 -12.28281,-8.294882 z"
           id="path18" />
      </g>
      <g
         id="g2"
         transform="matrix(1.3366673,0,0,1.3366673,-7.0906578,42.814977)"
         style="fill:#ffffff;fill-opacity:1">
        <path
           style="font-size:10.4285px;font-family:'Franklin Gothic Heavy';-inkscape-font-specification:'Franklin Gothic Heavy, Normal';font-feature-settings:HI;fill:#ffffff;fill-opacity:1;stroke:#000000;stroke-width:0;stroke-dashoffset:413.45"
           d="m 109.78809,29.137014 v 6.500314 H 89.310106 V 8.419758 h 20.477984 v 6.28098 H 97.505285 v 3.948041 h 9.929935 v 6.041702 h -9.929935 v 4.446533 z"
           id="path17" />
        <path
           style="font-size:10.4285px;font-family:'Franklin Gothic Heavy';-inkscape-font-specification:'Franklin Gothic Heavy, Normal';font-feature-settings:HI;fill:#ffffff;fill-opacity:1;stroke:#000000;stroke-width:0;stroke-dashoffset:413.45"
           d="m 77.697698,8.419758 v 27.21757 H 69.941189 V 16.176269 l -5.04472,19.461059 H 59.592532 L 54.36835,16.176269 V 35.637328 H 48.107312 V 8.419758 h 10.90697 l 3.948045,14.456218 3.768587,-14.456218 z"
           id="path16" />
        <path
           style="font-size:10.4285px;font-family:'Franklin Gothic Heavy';-inkscape-font-specification:'Franklin Gothic Heavy, Normal';font-feature-settings:HI;fill:#ffffff;fill-opacity:1;stroke:#000000;stroke-width:0;stroke-dashoffset:413.45"
           d="M 15,35.637328 V 8.419758 h 13.818154 c 2.871303,0 4.964962,0.7244725 6.280976,2.173415 1.316016,1.448945 1.974022,3.103933 1.974022,4.964962 0,1.355895 -0.3855,2.585506 -1.156498,3.688832 -0.757705,1.090031 -1.894262,1.841087 -3.409675,2.253176 3.522666,0.850755 5.283997,2.964355 5.283997,6.340797 0,2.020548 -0.624774,3.828407 -1.874322,5.423574 -1.23626,1.581878 -3.888227,2.372814 -7.955906,2.372814 z m 7.696691,-16.789154 h 3.868285 c 0.970395,0 1.654986,-0.245905 2.053777,-0.737764 0.398793,-0.491843 0.598188,-1.016923 0.598188,-1.575233 0,-1.515409 -0.930514,-2.273114 -2.791543,-2.273114 h -3.728707 z m 0,10.72751 h 4.067679 c 1.010275,0 1.748042,-0.245933 2.213299,-0.737763 0.478548,-0.50514 0.717824,-1.070093 0.717824,-1.69487 0,-0.624776 -0.23263,-1.196375 -0.697884,-1.714802 -0.451964,-0.531725 -1.28943,-0.797587 -2.512392,-0.797587 h -3.788526 z"
           id="text5" />
      </g>
    </g>
  </g>
</svg>
