<?xml version="1.0" encoding="UTF-8" standalone="no"?>
<!-- Created with Inkscape (http://www.inkscape.org/) -->

<svg
   width="230mm"
   height="36.755001mm"
   viewBox="0 0 230 36.755001"
   version="1.1"
   id="svg1"
   inkscape:version="1.3.2 (091e20e, 2023-11-25, custom)"
   sodipodi:docname="BME STORE.svg"
   xmlns:inkscape="http://www.inkscape.org/namespaces/inkscape"
   xmlns:sodipodi="http://sodipodi.sourceforge.net/DTD/sodipodi-0.dtd"
   xmlns="http://www.w3.org/2000/svg"
   xmlns:svg="http://www.w3.org/2000/svg">
  <sodipodi:namedview
     id="namedview1"
     pagecolor="#ffffff"
     bordercolor="#000000"
     borderopacity="0.25"
     inkscape:showpageshadow="2"
     inkscape:pageopacity="0.0"
     inkscape:pagecheckerboard="0"
     inkscape:deskcolor="#d1d1d1"
     inkscape:document-units="mm"
     inkscape:zoom="1"
     inkscape:cx="431.5"
     inkscape:cy="190.5"
     inkscape:window-width="1920"
     inkscape:window-height="991"
     inkscape:window-x="-9"
     inkscape:window-y="-9"
     inkscape:window-maximized="1"
     inkscape:current-layer="layer1" />
  <defs
     id="defs1" />
  <g
     inkscape:label="Layer 1"
     inkscape:groupmode="layer"
     id="layer1">
    <text
       xml:space="preserve"
       style="font-style:normal;font-variant:normal;font-weight:bold;font-stretch:normal;font-size:13.2044px;font-family:Helvetica;-inkscape-font-specification:'Helvetica, Bold';font-variant-ligatures:normal;font-variant-caps:normal;font-variant-numeric:normal;font-variant-east-asian:normal;fill:#000000;stroke:#000000;stroke-width:0;stroke-dashoffset:413.45"
       x="58.335953"
       y="60.405952"
       id="text4"><tspan
         sodipodi:role="line"
         id="tspan4"
         style="font-style:normal;font-variant:normal;font-weight:bold;font-stretch:normal;font-size:13.2044px;font-family:Helvetica;-inkscape-font-specification:'Helvetica, Bold';font-variant-ligatures:normal;font-variant-caps:normal;font-variant-numeric:normal;font-variant-east-asian:normal;stroke-width:0"
         x="58.335953"
         y="60.405952" /></text>
    <rect
       style="fill:#ff0030;fill-opacity:1;stroke:#000000;stroke-width:0;stroke-dashoffset:413.45"
       id="rect5"
       width="230"
       height="36.755001"
       x="0"
       y="0" />
    <g
       id="g22"
       transform="matrix(1.6254829,0,0,1.6254829,0.58054893,-35.28661)">
      <path
         style="font-size:10.4285px;font-family:'Franklin Gothic Heavy';-inkscape-font-specification:'Franklin Gothic Heavy, Normal';font-feature-settings:HI;fill:#ffffff;stroke:#000000;stroke-width:0;stroke-dashoffset:413.45"
         d="m 131.91123,36.249473 v 2.958442 h -9.31999 v -12.38734 h 9.31999 v 2.858618 h -5.59018 v 1.796844 h 4.51933 v 2.749717 h -4.51933 v 2.023719 z"
         id="path22" />
      <path
         style="font-size:10.4285px;font-family:'Franklin Gothic Heavy';-inkscape-font-specification:'Franklin Gothic Heavy, Normal';font-feature-settings:HI;fill:#ffffff;stroke:#000000;stroke-width:0;stroke-dashoffset:413.45"
         d="m 117.66916,39.207915 h -4.21986 l -1.80592,-4.737137 h -1.1979 v 4.737137 h -3.80242 v -12.38734 h 6.47046 c 1.4278,0 2.53495,0.335773 3.32144,1.007321 0.79255,0.665499 1.18883,1.545771 1.18883,2.640817 0,0.713899 -0.1452,1.346123 -0.4356,1.896672 -0.2904,0.544497 -0.87725,1.025471 -1.76055,1.442919 z m -7.22368,-7.38703 h 1.62442 c 0.47795,0 0.86212,-0.09983 1.15252,-0.299474 0.2904,-0.19965 0.4356,-0.493074 0.4356,-0.880272 0,-0.792549 -0.48702,-1.188824 -1.46107,-1.188824 h -1.75147 z"
         id="path21" />
      <path
         style="font-size:10.4285px;font-family:'Franklin Gothic Heavy';-inkscape-font-specification:'Franklin Gothic Heavy, Normal';font-feature-settings:HI;fill:#ffffff;stroke:#000000;stroke-width:0;stroke-dashoffset:413.45"
         d="m 96.030995,39.39849 c -1.742395,0 -3.164142,-0.577773 -4.265238,-1.73332 -1.095048,-1.155547 -1.642571,-2.701318 -1.642571,-4.637312 0,-1.851296 0.523323,-3.378917 1.56997,-4.582863 C 92.745853,27.234998 94.2039,26.63 96.067294,26.63 c 1.724241,0 3.127832,0.568698 4.210776,1.706094 1.089,1.137397 1.63349,2.655943 1.63349,4.555638 0,1.966244 -0.54752,3.542265 -1.64257,4.728062 -1.095034,1.185798 -2.507695,1.778696 -4.237995,1.778696 z m -0.01814,-2.813242 c 0.641298,0 1.101097,-0.2783 1.37939,-0.834898 0.28435,-0.562649 0.42653,-1.588121 0.42653,-3.076418 0,-2.153794 -0.577774,-3.230691 -1.73332,-3.230691 -1.246296,0 -1.869445,1.228147 -1.869445,3.684441 0,2.305044 0.598948,3.457566 1.796845,3.457566 z"
         id="path20" />
      <path
         style="font-size:10.4285px;font-family:'Franklin Gothic Heavy';-inkscape-font-specification:'Franklin Gothic Heavy, Normal';font-feature-settings:HI;fill:#ffffff;stroke:#000000;stroke-width:0;stroke-dashoffset:413.45"
         d="m 83.903388,29.788091 v 9.419824 h -3.602767 v -9.419824 h -2.568217 v -2.967516 h 8.739201 v 2.967516 z"
         id="path19" />
      <path
         style="font-size:10.4285px;font-family:'Franklin Gothic Heavy';-inkscape-font-specification:'Franklin Gothic Heavy, Normal';font-feature-settings:HI;fill:#ffffff;stroke:#000000;stroke-width:0;stroke-dashoffset:413.45"
         d="m 63.118254,35.623299 3.530165,-0.635247 c 0.296449,0.998247 1.058747,1.49737 2.286895,1.49737 0.955897,0 1.433845,-0.254099 1.433845,-0.762297 0,-0.266199 -0.11193,-0.471899 -0.335773,-0.617099 -0.2178,-0.151249 -0.611049,-0.284349 -1.179748,-0.399299 -2.171944,-0.41745 -3.566465,-0.961947 -4.183563,-1.633494 -0.617099,-0.67155 -0.925648,-1.461073 -0.925648,-2.36857 0,-1.167647 0.441649,-2.138669 1.324947,-2.913067 0.889347,-0.774398 2.165893,-1.161596 3.82964,-1.161596 2.522843,0 4.189614,1.013371 5.000311,3.040115 l -3.149016,0.952875 c -0.326699,-0.828849 -0.989172,-1.243273 -1.98742,-1.243273 -0.828848,0 -1.243272,0.257125 -1.243272,0.771373 0,0.2299 0.09378,0.408374 0.281325,0.535423 0.18755,0.12705 0.550549,0.24805 1.088998,0.363 1.482246,0.314599 2.534943,0.592898 3.15809,0.834896 0.623149,0.242 1.143447,0.656424 1.560896,1.243273 0.41745,0.580798 0.626174,1.267471 0.626174,2.060018 0,1.252347 -0.508199,2.268745 -1.524596,3.049193 -1.016398,0.774398 -2.35042,1.161597 -4.002065,1.161597 -3.018942,0 -4.882337,-1.258396 -5.590185,-3.775191 z"
         id="path18" />
      <path
         style="font-size:10.4285px;font-family:'Franklin Gothic Heavy';-inkscape-font-specification:'Franklin Gothic Heavy, Normal';font-feature-settings:HI;fill:#ffffff;stroke:#000000;stroke-width:0;stroke-dashoffset:413.45"
         d="m 52.011104,36.249473 v 2.958442 h -9.319999 v -12.38734 h 9.319999 v 2.858618 h -5.590185 v 1.796844 h 4.519339 v 2.749717 h -4.519339 v 2.023719 z"
         id="path17" />
      <path
         style="font-size:10.4285px;font-family:'Franklin Gothic Heavy';-inkscape-font-specification:'Franklin Gothic Heavy, Normal';font-feature-settings:HI;fill:#ffffff;stroke:#000000;stroke-width:0;stroke-dashoffset:413.45"
         d="m 37.406032,26.820575 v 12.38734 h -3.530165 v -8.857174 l -2.295968,8.857174 h -2.413943 l -2.377645,-8.857174 v 8.857174 h -2.849542 v -12.38734 h 4.964012 l 1.796846,6.579356 1.71517,-6.579356 z"
         id="path16" />
      <path
         style="font-size:10.4285px;font-family:'Franklin Gothic Heavy';-inkscape-font-specification:'Franklin Gothic Heavy, Normal';font-feature-settings:HI;fill:#ffffff;stroke:#000000;stroke-width:0;stroke-dashoffset:413.45"
         d="m 8.8708722,39.207915 v -12.38734 h 6.2889588 c 1.306796,0 2.259668,0.329724 2.858616,0.989171 0.598949,0.659448 0.898423,1.412671 0.898423,2.259668 0,0.617099 -0.17545,1.176723 -0.526349,1.678872 -0.344849,0.496098 -0.862122,0.837921 -1.551821,1.025472 1.603246,0.387198 2.404868,1.349146 2.404868,2.885842 0,0.919598 -0.284349,1.742396 -0.853047,2.468393 -0.56265,0.719949 -1.769621,1.079922 -3.620915,1.079922 z m 3.5029408,-7.641129 h 1.760545 c 0.441649,0 0.753222,-0.111917 0.934721,-0.335773 0.1815,-0.223849 0.272249,-0.462825 0.272249,-0.716925 0,-0.689697 -0.423498,-1.034546 -1.270495,-1.034546 h -1.69702 z m 0,4.882336 h 1.851294 c 0.459799,0 0.795574,-0.11193 1.007323,-0.335773 0.217798,-0.229901 0.326698,-0.487024 0.326698,-0.771374 0,-0.28435 -0.105875,-0.544498 -0.317623,-0.780446 -0.205699,-0.242 -0.586849,-0.363 -1.143447,-0.363 h -1.724245 z"
         id="text5" />
    </g>
  </g>
</svg>
